<?xml version="1.0" encoding="UTF-8"?>
<svg id="Layer_1" data-name="Layer 1" xmlns="http://www.w3.org/2000/svg" viewBox="0 0 352.88 350.8">
  <defs>
    <style>
      .cls-1 {
        fill: #231f20;
      }

      .cls-1, .cls-2 {
        stroke-miterlimit: 10;
      }

      .cls-1, .cls-2, .cls-3 {
        stroke: #010101;
      }

      .cls-2 {
        fill: none;
      }

      .cls-3 {
        fill: #fff;
        stroke-linecap: round;
        stroke-linejoin: round;
      }
    </style>
  </defs>
  <g>
    <g>
      <path class="cls-2" d="M237.45,217.48c-5.29,.52-9.41,4.98-9.41,10.4,0,1.24,.23,2.42,.62,3.52l.52,1.2c.39,1.1,.62,2.28,.62,3.52,0,5.78-4.68,10.76-10.46,10.76l-3.64,.2c-18.37,0-33.25-14.89-33.25-33.25s14.89-33.25,33.25-33.25c14.76,0,27.27,9.62,31.61,22.93"/>
      <path class="cls-2" d="M247.31,203.52c.06,.17,.12,.35,.17,.53-.05-.18-.11-.35-.17-.53Z"/>
      <path class="cls-2" d="M228.66,231.41c-.4-1.1-.62-2.28-.62-3.52,0-5.77,4.68-10.46,10.46-10.46l.64-.13c4.97-.8,8.77-5.12,8.77-10.32,0-1.02-.15-2-.42-2.93-.05-.18-.12-.35-.17-.53"/>
    </g>
    <path class="cls-2" d="M240.77,202.03c0,2.57-2.09,4.66-4.66,4.66s-4.66-2.09-4.66-4.66,2.09-4.66,4.66-4.66,4.66,2.09,4.66,4.66Z"/>
    <path class="cls-2" d="M228.04,191.5c0,2.57-2.09,4.66-4.66,4.66s-4.66-2.09-4.66-4.66,2.09-4.66,4.66-4.66,4.66,2.09,4.66,4.66Z"/>
    <path class="cls-2" d="M210.41,192.53c0,2.57-2.09,4.66-4.66,4.66s-4.66-2.09-4.66-4.66,2.09-4.66,4.66-4.66,4.66,2.09,4.66,4.66Z"/>
    <path class="cls-2" d="M198.42,204.96c0,2.57-2.09,4.66-4.66,4.66s-4.66-2.09-4.66-4.66,2.09-4.66,4.66-4.66,4.66,2.09,4.66,4.66Z"/>
    <path class="cls-2" d="M198.9,222.53c0,2.57-2.09,4.66-4.66,4.66s-4.66-2.09-4.66-4.66,2.09-4.66,4.66-4.66,4.66,2.09,4.66,4.66Z"/>
    <path class="cls-2" d="M211.03,235.2c0,2.57-2.09,4.66-4.66,4.66s-4.66-2.09-4.66-4.66,2.09-4.66,4.66-4.66,4.66,2.09,4.66,4.66Z"/>
    <polyline class="cls-2" points="222.42 222.31 221.87 222.31 229.65 222.31"/>
    <path class="cls-2" d="M222.42,222.31c-2.81,0-5.09-2.26-5.09-5.05s1.92-5.05,4.28-5.05h1.98c1.41,0,2.54-1.06,2.54-2.38s-1.14-2.38-2.54-2.38h-8.09c-2.81,0-5.09-2.26-5.09-5.05s1.92-5.05,4.28-5.05h2.44c1.41,0,2.54-1.06,2.54-2.38s-1.14-2.38-2.54-2.38h-.21c-2.37,0-4.28-2.26-4.28-5.05s2.28-5.05,5.09-5.05h9.14"/>
  </g>
  <g>
    <rect class="cls-2" x="82.44" y="232.08" width="88.91" height="7.41"/>
    <rect class="cls-2" x="89.95" y="187.42" width="73.9" height="44.66"/>
    <rect class="cls-2" x="95.04" y="192.51" width="63.72" height="39.57"/>
    <rect class="cls-2" x="122.69" y="181.01" width="8.41" height="6.41"/>
    <rect class="cls-2" x="122.69" y="239.49" width="8.41" height="19.13"/>
    <g>
      <polygon class="cls-2" points="107.96 259.71 102.16 259.71 112.74 239.49 118.55 239.49 107.96 259.71"/>
      <polygon class="cls-2" points="145.83 259.71 151.64 259.71 141.05 239.49 135.24 239.49 145.83 259.71"/>
    </g>
    <g>
      <path class="cls-2" d="M106.02,200.53c0,1.16-.94,2.1-2.1,2.1s-2.1-.94-2.1-2.1,.94-2.1,2.1-2.1,2.1,.94,2.1,2.1Z"/>
      <path class="cls-2" d="M151.98,200.53c0,1.16-.94,2.1-2.1,2.1s-2.1-.94-2.1-2.1,.94-2.1,2.1-2.1,2.1,.94,2.1,2.1Z"/>
    </g>
    <g>
      <path class="cls-2" d="M112.96,210.18v10.48c0,1.92-1.56,3.48-3.48,3.48s-3.48-1.56-3.48-3.48v-11.82"/>
      <path class="cls-2" d="M126.9,221.27v1.91c0,1.92-1.56,3.48-3.48,3.48s-3.48-1.56-3.48-3.48v-19.16c0-1.92-1.56-3.48-3.48-3.48s-3.48,1.56-3.48,3.48v3.03"/>
      <line class="cls-2" x1="147.8" y1="218.88" x2="147.8" y2="225.73"/>
      <path class="cls-2" d="M126.9,214.63v-5.38c0-1.92,1.56-3.48,3.48-3.48s3.48,1.56,3.48,3.48v9.41c0,1.92,1.56,3.48,3.48,3.48s3.48-1.56,3.48-3.48v-5.17c0-1.92,1.56-3.48,3.48-3.48s3.48,1.56,3.48,3.48"/>
    </g>
    <line class="cls-2" x1="126.9" y1="224.14" x2="126.9" y2="218.22"/>
  </g>
  <g>
    <path class="cls-2" d="M222.24,155.8c0-3.28-2.66-5.94-5.94-5.94h-76.04c-3.28,0-5.94,2.66-5.94,5.94v3.58h87.92v-3.58Z"/>
    <rect class="cls-2" x="140.5" y="104.66" width="75.56" height="45.2"/>
    <path class="cls-2" d="M201.12,149.86c0,2.19-1.78,3.96-3.96,3.96h-37.75c-2.19,0-3.96-1.78-3.96-3.96h45.68Z"/>
    <path class="cls-3" d="M159.87,108.24c0,7.06-5.72,12.78-12.78,12.78s-12.78-5.72-12.78-12.78,5.72-12.78,12.78-12.78,12.78,5.72,12.78,12.78Z"/>
    <path class="cls-3" d="M146.57,107.69s.88-4.75,4.3-4.75c2.31,0,3.69,1.75,3.69,4.11,0,4.41-7.99,7.99-7.99,7.99,0,0-7.99-3.58-7.99-7.99,0-2.36,1.38-4.11,3.69-4.11,3.42,0,4.3,4.75,4.3,4.75Z"/>
    <polyline class="cls-2" points="148.51 120.93 148.51 145.24 143.97 145.24 143.97 120.63"/>
    <line class="cls-2" x1="159.79" y1="109.64" x2="216.06" y2="109.64"/>
    <line class="cls-2" x1="203.29" y1="109.64" x2="203.29" y2="149.86"/>
    <line class="cls-2" x1="203.29" y1="116.25" x2="216.06" y2="116.25"/>
    <line class="cls-2" x1="203.29" y1="121.01" x2="216.06" y2="121.01"/>
    <line class="cls-2" x1="203.29" y1="135.71" x2="216.06" y2="135.71"/>
    <polyline class="cls-2" points="152.93 119.6 152.93 145.24 199.75 145.24 199.75 113.03 158.94 113.03"/>
    <g>
      <path class="cls-2" d="M176.34,128c0,3.18-2.58,5.77-5.77,5.77s-5.77-2.58-5.77-5.77"/>
      <path class="cls-2" d="M176.34,128c0-3.18,2.58-5.77,5.77-5.77s5.77,2.58,5.77,5.77"/>
    </g>
    <polyline class="cls-2" points="175.56 130.88 177.78 137.03 173.35 137.03 175.57 130.88"/>
    <rect class="cls-2" x="174.72" y="137.03" width="1.82" height="3.34"/>
  </g>
  <g>
    <path class="cls-2" d="M288.32,122.85v-21.56h-45.57v60.13c0,7.03,5.7,12.72,12.72,12.72h43.45"/>
    <path class="cls-2" d="M308.25,164.18c0,5.5-4.46,9.96-9.96,9.96s-9.96-4.46-9.96-9.96v-41.33h19.93v41.33Z"/>
    <path class="cls-2" d="M302.33,122.85v42.81c0,4.68-3.8,8.48-8.48,8.48"/>
    <g>
      <path class="cls-2" d="M269.53,119.28h-12.24c-2.25,0-4.07-1.82-4.07-4.07s1.82-4.07,4.07-4.07h13.81"/>
      <path class="cls-2" d="M256.58,135.56h-2.23c-2.25,0-4.07-1.82-4.07-4.07s1.82-4.07,4.07-4.07h22.38c2.25,0,4.07-1.82,4.07-4.07s-1.82-4.07-4.07-4.07h-3.54"/>
      <line class="cls-2" x1="259.37" y1="159.98" x2="251.37" y2="159.98"/>
      <path class="cls-2" d="M264.33,135.56h6.28c2.25,0,4.07,1.82,4.07,4.07s-1.82,4.07-4.07,4.07h-11c-2.25,0-4.07,1.82-4.07,4.07s1.82,4.07,4.07,4.07h6.04c2.25,0,4.07,1.82,4.07,4.07s-1.82,4.07-4.07,4.07"/>
    </g>
  </g>
  <g>
    <g>
      <path class="cls-2" d="M289.58,284.67c7.31,0,13.23,5.92,13.23,13.23s-5.92,13.23-13.23,13.23-23.06-5.92-23.06-13.23,15.75-13.23,23.06-13.23Z"/>
      <g>
        <line class="cls-2" x1="258.85" y1="301.49" x2="267.77" y2="301.49"/>
        <line class="cls-2" x1="258.85" y1="294.31" x2="267.79" y2="294.31"/>
      </g>
      <g>
        <polygon class="cls-2" points="220.27 294.31 220.27 301.49 245.57 310.5 258.85 301.49 258.85 294.31 245.57 285.3 220.27 294.31"/>
        <path class="cls-2" d="M229.51,304.78h8.78c1.21,0,2.18-.98,2.18-2.18s-.98-2.18-2.18-2.18h-4.93c-1.23,0-2.22-.99-2.22-2.22s.99-2.22,2.22-2.22h19.03c1.2,0,2.18-.98,2.18-2.18s-.98-2.18-2.18-2.18h-8.13c-1.22,0-2.22-.99-2.22-2.22s.99-2.22,2.22-2.22h4.08"/>
      </g>
    </g>
    <path class="cls-2" d="M292.17,292.62c2.92,0,5.28,2.36,5.28,5.28s-2.36,5.28-5.28,5.28-5.28-2.36-5.28-5.28,2.36-5.28,5.28-5.28Z"/>
  </g>
  <g>
    <g>
      <path class="cls-2" d="M64.7,289.5c0,7.31-5.92,13.23-13.23,13.23s-13.23-5.92-13.23-13.23,5.92-23.06,13.23-23.06,13.23,15.75,13.23,23.06Z"/>
      <g>
        <line class="cls-2" x1="47.87" y1="258.77" x2="47.87" y2="267.69"/>
        <line class="cls-2" x1="55.05" y1="258.77" x2="55.05" y2="267.7"/>
      </g>
      <g>
        <polygon class="cls-2" points="55.05 220.19 47.87 220.19 38.86 245.48 47.87 258.77 55.05 258.77 64.06 245.48 55.05 220.19"/>
        <path class="cls-2" d="M44.58,229.43v8.78c0,1.2,.98,2.18,2.18,2.18s2.18-.98,2.18-2.18v-4.93c0-1.23,.99-2.22,2.22-2.22s2.22,.99,2.22,2.22v19.03c0,1.2,.98,2.18,2.18,2.18s2.18-.98,2.18-2.18v-8.13c0-1.22,.99-2.22,2.22-2.22s2.22,.99,2.22,2.22v4.08"/>
      </g>
    </g>
    <path class="cls-2" d="M56.74,292.08c0,2.92-2.36,5.28-5.28,5.28s-5.28-2.36-5.28-5.28,2.36-5.28,5.28-5.28,5.28,2.36,5.28,5.28Z"/>
  </g>
  <g>
    <path class="cls-2" d="M340.49,175.25s-1.02,6.95,0,8.92c3.14,6,9.63,15.74,9.63,21.8,0,7.31-5.92,13.23-13.23,13.23s-13.23-5.92-13.23-13.23c0-6.06,6.5-15.8,9.64-21.81,1.03-1.98,0-8.92,0-8.92"/>
    <path class="cls-2" d="M342.45,208.56c0,2.92-2.36,5.28-5.28,5.28s-5.28-2.36-5.28-5.28,2.36-5.28,5.28-5.28,5.28,2.36,5.28,5.28Z"/>
    <path class="cls-2" d="M352.38,160.54c0,8.55-6.93,15.48-15.48,15.48s-15.48-6.93-15.48-15.48c0-7.38,4.34-9.98,6.51-15.26,1.86-4.52,.09-9.4,.09-9.4,0,0,7.16,2.45,11.96,4.88,10.15,5.15,12.39,11.23,12.39,19.78Z"/>
    <path class="cls-2" d="M325.72,149.27v8.31c0,1.2,.98,2.18,2.18,2.18s2.18-.98,2.18-2.18v-2.39c0-1.23,.99-2.22,2.22-2.22s2.22,.99,2.22,2.22v8.05c0,1.2,.98,2.18,2.18,2.18s2.18-.98,2.18-2.18v-12.38c0-1.23,.99-2.22,2.22-2.22s2.22,.99,2.22,2.22v9.26c0,1.2,.98,2.18,2.18,2.18s2.18-.98,2.18-2.18v-2.01c0-1.23,.99-2.22,2.22-2.22s2.22,.99,2.22,2.22v5.22"/>
  </g>
  <g>
    <path class="cls-2" d="M26.44,119.57s1.02-6.95,0-8.92c-3.14-6-9.63-15.74-9.63-21.8,0-7.31,5.92-13.23,13.23-13.23s13.23,5.92,13.23,13.23c0,6.06-6.5,15.8-9.64,21.81-1.03,1.98,0,8.92,0,8.92"/>
    <path class="cls-2" d="M24.47,86.26c0-2.92,2.36-5.28,5.28-5.28s5.28,2.36,5.28,5.28-2.36,5.28-5.28,5.28-5.28-2.36-5.28-5.28Z"/>
    <path class="cls-2" d="M14.55,134.28c0-8.55,6.93-15.48,15.48-15.48s15.48,6.93,15.48,15.48c0,7.38-4.34,9.98-6.51,15.26-1.86,4.52-.09,9.4-.09,9.4,0,0-7.16-2.45-11.96-4.88-10.15-5.15-12.39-11.23-12.39-19.78Z"/>
    <path class="cls-2" d="M41.21,145.55v-8.31c0-1.2-.98-2.18-2.18-2.18s-2.18,.98-2.18,2.18v2.39c0,1.23-.99,2.22-2.22,2.22s-2.22-.99-2.22-2.22v-8.05c0-1.2-.98-2.18-2.18-2.18s-2.18,.98-2.18,2.18v12.38c0,1.23-.99,2.22-2.22,2.22s-2.22-.99-2.22-2.22v-9.26c0-1.2-.98-2.18-2.18-2.18s-2.18,.98-2.18,2.18v2.01c0,1.23-.99,2.22-2.22,2.22s-2.22-.99-2.22-2.22v-5.22"/>
  </g>
  <g>
    <path class="cls-2" d="M10.58,196.37H3.72c-1.78,0-3.22,1.44-3.22,3.22v10.01H50.52v-10.01c0-1.78-1.44-3.22-3.22-3.22H10.58Z"/>
    <path class="cls-2" d="M34.08,188.29h8.46c1.78,0,3.22,1.44,3.22,3.22v4.86"/>
    <path class="cls-2" d="M5.26,196.37v-4.86c0-1.78,1.44-3.22,3.22-3.22h9.93"/>
    <path class="cls-2" d="M12.49,188.29v-3.77c0-1.78,1.44-3.22,3.22-3.22h19.6c1.78,0,3.22,1.44,3.22,3.22v3.77"/>
    <path class="cls-2" d="M33.76,181.3H17.25v-2.81c0-1.78,1.44-3.22,3.22-3.22h10.08c1.78,0,3.22,1.44,3.22,3.22v2.81Z"/>
    <polygon class="cls-2" points="30.63 163.47 20.39 166.04 20.39 175.28 30.63 175.28 30.63 163.47"/>
    <path class="cls-2" d="M21.71,165.71s-.31,6.56,3.8,6.56,3.32-8.35,3.32-8.35"/>
  </g>
  <g>
    <path class="cls-2" d="M92.6,76.92h0V39.34h0c7.71,0,13.95,6.25,13.95,13.95v9.69c0,5.67-3.39,10.55-8.25,12.73V40.41"/>
    <path class="cls-2" d="M60.52,64.4c-3.46,0-6.26,2.8-6.26,6.26s2.8,6.26,6.26,6.26h32.08v-12.52H60.52Z"/>
    <path class="cls-2" d="M60.52,51.87c-3.46,0-6.26,2.8-6.26,6.26s2.8,6.26,6.26,6.26h32.08v-12.52H60.52Z"/>
    <path class="cls-2" d="M60.52,39.35c-3.46,0-6.26,2.8-6.26,6.26s2.8,6.26,6.26,6.26h32.08v-12.53H60.52Z"/>
    <polyline class="cls-2" points="57.66 40.05 27.03 58 57.59 76.19"/>
    <line class="cls-2" x1="36.36" y1="63.55" x2="36.36" y2="52.53"/>
  </g>
  <g>
    <rect class="cls-2" x="259.9" y="225.6" width="45.12" height="45.96"/>
    <path class="cls-2" d="M309.43,222.43c0,1.75-1.42,3.17-3.17,3.17h-47.61c-1.75,0-3.17-1.42-3.17-3.17s1.42-3.17,3.17-3.17h47.61c1.75,0,3.17,1.42,3.17,3.17Z"/>
    <path class="cls-2" d="M259.9,219.27c0-12.51,4.02-31.14,22.66-31.14s22.66,18.63,22.66,31.14"/>
    <path class="cls-2" d="M259.9,225.6v17.24c0,3.31,2.68,5.99,5.99,5.99s5.99-2.68,5.99-5.99v-9.56c0-1.17,.95-2.12,2.12-2.12h.34c1.17,0,2.12,.95,2.12,2.12v3.53c0,3.31,2.68,5.99,5.99,5.99s5.99-2.68,5.99-5.99v-3.53c0-1.17,.95-2.12,2.12-2.12h.34c1.17,0,2.12,.95,2.12,2.12v12.95c0,3.31,2.68,5.99,5.99,5.99s5.99-2.68,5.99-5.99v-20.62"/>
    <g>
      <polyline class="cls-2" points="305.02 271.56 323.73 271.56 323.73 236.93 305.02 236.93"/>
      <path class="cls-2" d="M305.02,233.39h19.41c.98,0,1.77,.79,1.77,1.77s-.79,1.77-1.77,1.77h-19.41"/>
      <path class="cls-2" d="M305.02,246.67v-5.4c0-.66,.54-1.2,1.2-1.2h.19c.66,0,1.2,.54,1.2,1.2v1.99c0,1.87,1.52,3.38,3.38,3.38s3.38-1.52,3.38-3.38v-1.99c0-.66,.54-1.2,1.2-1.2h.19c.66,0,1.2,.54,1.2,1.2v7.31c0,1.87,1.51,3.38,3.38,3.38s3.39-1.51,3.39-3.38v-11.65"/>
    </g>
    <path class="cls-2" d="M305.02,262.34c0-3.31-2.68-5.99-5.99-5.99s-5.99,2.68-5.99,5.99h0c0,3.31,2.68,5.99,5.99,5.99s5.99-2.68,5.99-5.99h0Z"/>
  </g>
  <path class="cls-2" d="M172.88,324.42h17.19c5.62,0,10.18,4.56,10.18,10.18v2.62c0,5.62-4.56,10.18-10.18,10.18h-17.2c-5.62,0-10.18-4.56-10.18-10.18v-2.62c0-5.62,4.56-10.18,10.18-10.18Z"/>
  <line class="cls-2" x1="182.95" y1="343.16" x2="178.28" y2="343.16"/>
  <path class="cls-2" d="M172.88,343.16c-3.27,0-5.94-2.66-5.94-5.94"/>
  <path class="cls-2" d="M190.9,348.85c0,.8-.65,1.45-1.45,1.45h-15.94c-.8,0-1.45-.65-1.45-1.45s.65-1.45,1.45-1.45h15.94c.8,0,1.45,.65,1.45,1.45Z"/>
  <polygon class="cls-2" points="190.9 324.46 171.01 324.46 169.32 319.3 192.59 319.3 190.9 324.46"/>
  <path class="cls-2" d="M189.89,295.4s1.88-35.49,33.94-33.94l-40.84,40.84"/>
  <path class="cls-2" d="M186.91,298.37s36.71-5.21,36.91-36.91"/>
  <line class="cls-2" x1="195.72" y1="276.23" x2="197.05" y2="288.24"/>
  <line class="cls-2" x1="207.1" y1="264.85" x2="208.45" y2="276.84"/>
  <line class="cls-2" x1="215.17" y1="270.11" x2="222.61" y2="270.71"/>
  <line class="cls-2" x1="202.39" y1="282.9" x2="215" y2="284.26"/>
  <path class="cls-2" d="M185.07,310.32c0,2.28-1.85,4.13-4.13,4.13s-4.13-1.85-4.13-4.13,4.13-5.98,4.13-5.98c0,0,4.13,3.7,4.13,5.98Z"/>
  <g>
    <path class="cls-2" d="M101.74,131.71H58.4c-2.34,0-4.24-1.9-4.24-4.24v-.96c0-2.34,1.9-4.24,4.24-4.24h43.33"/>
    <path class="cls-2" d="M110.4,122.27c2.34,0,4.24,1.9,4.24,4.24v.96c0,2.34-1.9,4.24-4.24,4.24"/>
    <polyline class="cls-2" points="110.33 122.27 110.33 89.37 58.47 89.37 58.47 122.27 101.74 122.27"/>
    <path class="cls-2" d="M81.02,178.29c-4.68,0-7.95-3.76-7.3-8.4l5.87-23.66c.33-2.32,2.48-4.2,4.82-4.2s4.49,1.88,4.82,4.2l5.87,23.66c.65,4.64-2.62,8.4-7.3,8.4h-6.76Z"/>
    <g>
      <line class="cls-2" x1="82.47" y1="142.45" x2="82.47" y2="131.71"/>
      <line class="cls-2" x1="86.33" y1="131.71" x2="86.33" y2="142.47"/>
    </g>
    <path class="cls-2" d="M88.27,169.54c0,2.14-1.73,3.87-3.87,3.87s-3.87-1.73-3.87-3.87,1.73-3.87,3.87-3.87,3.87,1.74,3.87,3.87Z"/>
    <path class="cls-2" d="M84.43,89.24h-25.96v10.38h4.41c2.34,0,4.24,1.9,4.24,4.24v5.54c0,2.34,1.9,4.24,4.24,4.24h.17c2.34,0,4.24-1.9,4.24-4.24v-7.42c0-2.34,1.9-4.24,4.24-4.24h.17c2.34,0,4.24,1.9,4.24,4.24v3.92c0,2.16,1.9,3.92,4.24,3.92h.17c2.34,0,4.24-1.9,4.24-4.24v-6.99c0-2.34,1.9-4.24,4.24-4.24h.17c2.34,0,4.24,1.9,4.24,4.24v35.95c0,2.34,1.9,4.24,4.24,4.24h.11c2.34,0,4.24-1.9,4.24-4.24v-45.3h-25.89Z"/>
    <rect class="cls-2" x="101.74" y="144.28" width="8.59" height="13.77" rx="4.24" ry="4.24"/>
  </g>
  <g>
    <g>
      <path class="cls-2" d="M117.33,42.55c0-21.87,17.73-39.6,39.6-39.6s39.6,17.73,39.6,39.6"/>
      <line class="cls-2" x1="196.53" y1="2.96" x2="117.33" y2="2.96"/>
      <path class="cls-1" d="M119.79,2.53c0,1.12-.91,2.03-2.03,2.03s-2.03-.91-2.03-2.03,.91-2.03,2.03-2.03,2.03,.91,2.03,2.03Z"/>
      <path class="cls-1" d="M198.56,2.53c0,1.12-.91,2.03-2.03,2.03s-2.03-.91-2.03-2.03,.91-2.03,2.03-2.03,2.03,.91,2.03,2.03Z"/>
      <rect class="cls-2" x="154.47" y=".5" width="4.91" height="4.91"/>
      <rect class="cls-2" x="114.88" y="40.1" width="4.91" height="4.91"/>
      <rect class="cls-2" x="194.07" y="40.1" width="4.91" height="4.91"/>
    </g>
    <path class="cls-2" d="M150.47,73.31c-.24-6.26-1.58-16.8-17.9-22.27,16.32-6.03,24.37-28.28,24.37-38.7h0"/>
    <path class="cls-2" d="M163.39,73.31c.24-6.26,1.58-16.8,17.9-22.27-16.32-6.03-24.37-28.28-24.37-38.7h0"/>
    <path class="cls-2" d="M157.34,69.16h-.82c-3.28,0-6.19,2.65-6.49,5.91l-1.14,12.22h16.09l-1.14-12.22c-.31-3.26-3.21-5.91-6.49-5.91Z"/>
    <line class="cls-2" x1="156.93" y1="12.33" x2="156.93" y2="53.28"/>
    <path class="cls-1" d="M158.96,53.28c0,1.12-.91,2.03-2.03,2.03s-2.03-.91-2.03-2.03,.91-2.03,2.03-2.03,2.03,.91,2.03,2.03Z"/>
  </g>
  <g>
    <rect class="cls-2" x="243.79" y="35.87" width="42.99" height="48.26"/>
    <path class="cls-2" d="M240.38,32.1c1.88,0,3.41,1.53,3.41,3.41v49c0,1.88-1.53,3.41-3.41,3.41s-3.41-1.53-3.41-3.41V35.51c0-1.88,1.53-3.41,3.41-3.41Z"/>
    <path class="cls-2" d="M290.19,32.1c1.88,0,3.41,1.53,3.41,3.41v49c0,1.88-1.53,3.41-3.41,3.41s-3.41-1.53-3.41-3.41V35.51c0-1.88,1.53-3.41,3.41-3.41Z"/>
    <line class="cls-2" x1="275.02" y1="84.14" x2="286.78" y2="67.68"/>
    <line class="cls-2" x1="259.39" y1="84.14" x2="286.78" y2="45.44"/>
    <line class="cls-2" x1="243.79" y1="84.14" x2="278.05" y2="35.88"/>
    <line class="cls-2" x1="270.42" y1="84.14" x2="243.79" y2="65.23"/>
    <line class="cls-2" x1="286.78" y1="80.41" x2="243.79" y2="49.89"/>
    <line class="cls-2" x1="286.78" y1="65.06" x2="245.66" y2="35.87"/>
    <line class="cls-2" x1="286.78" y1="49.72" x2="267.27" y2="35.87"/>
    <line class="cls-2" x1="243.79" y1="61.82" x2="262.39" y2="35.87"/>
    <g>
      <rect class="cls-2" x="206.26" y="62.83" width="30.71" height="15.9"/>
      <rect class="cls-2" x="206.26" y="78.73" width="20.39" height="4.5"/>
      <line class="cls-2" x1="230.2" y1="78.73" x2="230.2" y2="62.83"/>
    </g>
    <polygon class="cls-2" points="236.97 39.09 236.97 54.99 222.29 54.99 206.26 47.04 206.26 47.04 222.29 39.09 236.97 39.09"/>
    <line class="cls-2" x1="236.97" y1="54.99" x2="222.29" y2="54.99"/>
    <path class="cls-2" d="M220.18,53.95c-.34-.45-.54-1-.54-1.6,0-1.46,1.18-2.65,2.65-2.65h12.08"/>
    <line class="cls-2" x1="224.67" y1="44.39" x2="236.97" y2="44.39"/>
    <path class="cls-2" d="M222.29,49.69c-1.46,0-2.65-1.19-2.65-2.65s1.18-2.65,2.65-2.65"/>
    <path class="cls-2" d="M222.29,44.38c-1.46,0-2.65-1.19-2.65-2.65,0-.6,.2-1.16,.54-1.6"/>
    <line class="cls-2" x1="222.29" y1="39.09" x2="236.97" y2="39.09"/>
    <line class="cls-2" x1="212.6" y1="50.19" x2="212.6" y2="43.89"/>
  </g>
  <g>
    <rect class="cls-2" x="83.67" y="275.05" width="42.99" height="48.27"/>
    <path class="cls-2" d="M130.07,327.09c-1.88,0-3.41-1.53-3.41-3.41v-49c0-1.88,1.53-3.41,3.41-3.41s3.41,1.53,3.41,3.41v49c0,1.88-1.53,3.41-3.41,3.41Z"/>
    <path class="cls-2" d="M80.26,327.09c-1.88,0-3.41-1.53-3.41-3.41v-49c0-1.88,1.53-3.41,3.41-3.41s3.41,1.53,3.41,3.41v49c0,1.88-1.53,3.41-3.41,3.41Z"/>
    <line class="cls-2" x1="95.42" y1="275.05" x2="83.67" y2="291.51"/>
    <line class="cls-2" x1="111.05" y1="275.04" x2="83.67" y2="313.74"/>
    <line class="cls-2" x1="126.66" y1="275.05" x2="92.4" y2="323.31"/>
    <line class="cls-2" x1="100.03" y1="275.05" x2="126.66" y2="293.95"/>
    <line class="cls-2" x1="83.67" y1="278.78" x2="126.66" y2="309.3"/>
    <line class="cls-2" x1="83.67" y1="294.12" x2="124.79" y2="323.31"/>
    <line class="cls-2" x1="83.67" y1="309.46" x2="103.17" y2="323.31"/>
    <line class="cls-2" x1="126.66" y1="297.36" x2="108.06" y2="323.31"/>
    <g>
      <rect class="cls-2" x="133.48" y="280.46" width="30.71" height="15.9"/>
      <rect class="cls-2" x="143.8" y="275.96" width="20.39" height="4.5"/>
      <line class="cls-2" x1="140.24" y1="280.46" x2="140.24" y2="296.36"/>
    </g>
    <polygon class="cls-2" points="133.48 320.09 133.48 304.19 148.15 304.19 164.19 312.14 164.19 312.14 148.15 320.09 133.48 320.09"/>
    <line class="cls-2" x1="133.48" y1="304.19" x2="148.16" y2="304.19"/>
    <path class="cls-2" d="M150.26,305.24c.34,.45,.54,1,.54,1.6,0,1.46-1.18,2.65-2.65,2.65h-12.08"/>
    <line class="cls-2" x1="145.78" y1="314.79" x2="133.48" y2="314.79"/>
    <path class="cls-2" d="M148.16,309.5c1.46,0,2.65,1.19,2.65,2.65s-1.18,2.65-2.65,2.65"/>
    <path class="cls-2" d="M148.15,314.8c1.46,0,2.65,1.19,2.65,2.65,0,.6-.2,1.16-.54,1.6"/>
    <line class="cls-2" x1="148.15" y1="320.09" x2="133.48" y2="320.09"/>
    <line class="cls-2" x1="157.85" y1="309" x2="157.85" y2="315.29"/>
  </g>
</svg>