<?xml version="1.0" encoding="utf-8"?>
<!-- Generator: Adobe Illustrator 27.0.1, SVG Export Plug-In . SVG Version: 6.00 Build 0)  -->
<svg version="1.1" id="Layer_1" xmlns="http://www.w3.org/2000/svg" xmlns:xlink="http://www.w3.org/1999/xlink" x="0px" y="0px"
	 viewBox="0 0 122.61 46.28" style="enable-background:new 0 0 122.61 46.28;" xml:space="preserve">
<style type="text/css">
	.st0{fill:#4B5360;}
</style>
<g>
	<path class="st0" d="M30.05,4.88c2.58,2,3.87,4.73,3.87,8.2c0,1.33-0.18,2.52-0.53,3.57c-0.35,1.04-0.81,1.95-1.36,2.72
		c-0.56,0.77-1.22,1.45-1.98,2.03c-0.76,0.58-1.54,1.08-2.32,1.5c1.28,0.46,2.45,0.99,3.51,1.59c1.06,0.6,1.97,1.32,2.73,2.15
		c0.77,0.83,1.36,1.82,1.77,2.96c0.41,1.14,0.62,2.46,0.62,3.96c0,1.95-0.38,3.68-1.15,5.18c-0.77,1.5-1.86,2.75-3.27,3.77
		c-1.41,1.02-3.12,1.79-5.11,2.31c-2,0.52-4.2,0.78-6.61,0.78H0V1.87h19.58C23.98,1.87,27.47,2.88,30.05,4.88z M24.06,18.89
		c1.49-0.98,2.24-2.5,2.24-4.55c0-1.8-0.65-3.19-1.96-4.18c-1.31-0.98-3.21-1.48-5.7-1.48H7.62v11.68h10.46
		C20.57,20.36,22.56,19.87,24.06,18.89z M26.49,37.26c1.49-1.02,2.24-2.53,2.24-4.53c0-1.87-0.74-3.33-2.21-4.37
		c-1.47-1.04-3.73-1.56-6.76-1.56H7.62v11.99h12.7C22.94,38.79,25,38.28,26.49,37.26z"/>
	<path class="st0" d="M58.15,45.6v-4.06c-1.12,1.33-2.56,2.46-4.31,3.37c-1.75,0.92-3.87,1.37-6.37,1.37c-1.58,0-3.08-0.22-4.5-0.66
		c-1.42-0.44-2.65-1.08-3.72-1.94c-1.06-0.85-1.92-1.91-2.56-3.19c-0.65-1.27-0.97-2.74-0.97-4.4v-0.12c0-1.79,0.33-3.35,1-4.68
		c0.67-1.33,1.59-2.44,2.78-3.31c1.19-0.87,2.6-1.53,4.25-1.97c1.64-0.44,3.42-0.66,5.34-0.66c2,0,3.69,0.12,5.09,0.37
		c1.39,0.25,2.74,0.58,4.03,1v-0.81c0-2.29-0.7-4.04-2.09-5.25c-1.4-1.21-3.4-1.81-6.03-1.81c-1.87,0-3.54,0.19-5,0.56
		c-1.46,0.37-2.94,0.87-4.43,1.5l-2.06-6.06c1.83-0.83,3.71-1.5,5.62-2c1.92-0.5,4.23-0.75,6.93-0.75c4.91,0,8.56,1.22,10.93,3.65
		c2.37,2.44,3.56,5.86,3.56,10.27V45.6H58.15z M58.34,31.61c-0.96-0.37-2.09-0.69-3.4-0.94c-1.31-0.25-2.7-0.37-4.15-0.37
		c-2.37,0-4.23,0.46-5.56,1.37c-1.33,0.92-2,2.23-2,3.93v0.12c0,1.58,0.61,2.79,1.84,3.62c1.23,0.83,2.74,1.25,4.53,1.25
		c1.25,0,2.4-0.17,3.47-0.5c1.06-0.33,1.99-0.8,2.78-1.41c0.79-0.6,1.41-1.33,1.84-2.19c0.44-0.85,0.66-1.8,0.66-2.84V31.61z"/>
	<path class="st0" d="M91.01,40.41c-0.62,1.29-1.49,2.36-2.59,3.22c-1.1,0.85-2.4,1.5-3.9,1.94c-1.5,0.44-3.1,0.66-4.81,0.66
		c-2.37,0-4.78-0.42-7.21-1.25c-2.44-0.83-4.7-2.06-6.78-3.69l3.37-5.12c1.79,1.33,3.61,2.34,5.46,3.03
		c1.85,0.69,3.63,1.03,5.34,1.03c1.62,0,2.88-0.32,3.78-0.97c0.89-0.65,1.34-1.51,1.34-2.59v-0.12c0-0.62-0.2-1.17-0.59-1.62
		c-0.4-0.46-0.94-0.86-1.62-1.22c-0.69-0.35-1.48-0.67-2.37-0.94c-0.9-0.27-1.82-0.55-2.78-0.84c-1.21-0.38-2.43-0.79-3.65-1.25
		c-1.23-0.46-2.33-1.05-3.31-1.78c-0.98-0.73-1.78-1.62-2.4-2.69c-0.62-1.06-0.94-2.38-0.94-3.97v-0.12c0-1.54,0.3-2.94,0.91-4.18
		c0.6-1.25,1.44-2.31,2.5-3.19c1.06-0.87,2.31-1.54,3.75-2c1.44-0.46,2.97-0.69,4.59-0.69c2.08,0,4.18,0.33,6.31,1
		c2.12,0.67,4.06,1.58,5.81,2.75l-3,5.37c-1.58-0.96-3.19-1.72-4.81-2.28c-1.62-0.56-3.12-0.84-4.5-0.84c-1.46,0-2.59,0.31-3.4,0.94
		c-0.81,0.62-1.22,1.42-1.22,2.37v0.12c0,0.58,0.21,1.09,0.62,1.53s0.97,0.83,1.66,1.19c0.69,0.35,1.48,0.69,2.37,1
		c0.89,0.31,1.82,0.61,2.78,0.91c1.21,0.37,2.41,0.81,3.62,1.31c1.21,0.5,2.3,1.11,3.28,1.84c0.98,0.73,1.78,1.61,2.4,2.65
		c0.62,1.04,0.94,2.31,0.94,3.81v0.12C91.94,37.6,91.63,39.12,91.01,40.41z"/>
	<path class="st0" d="M123.05,45.6h-8.74l-9.93-14.24l-4.62,4.81v9.43h-7.62V0h7.62v27.23l13.68-14.62h9.18l-13.12,13.43
		L123.05,45.6z"/>
</g>
</svg>
